<?xml version="1.0" encoding="UTF-8" standalone="no"?>
<!-- Created with Inkscape (http://www.inkscape.org/) -->

<svg
   version="1.1"
   id="svg9"
   xml:space="preserve"
   width="273.9527"
   height="438.16129"
   viewBox="0 0 273.9527 438.16129"
   sodipodi:docname="Penguin.svg"
   inkscape:version="1.1 (c68e22c387, 2021-05-23)"
   xmlns:inkscape="http://www.inkscape.org/namespaces/inkscape"
   xmlns:sodipodi="http://sodipodi.sourceforge.net/DTD/sodipodi-0.dtd"
   xmlns="http://www.w3.org/2000/svg"
   xmlns:svg="http://www.w3.org/2000/svg"><defs
     id="defs13"><clipPath
       clipPathUnits="userSpaceOnUse"
       id="clipPath23"><path
         d="M 0,595.276 H 841.89 V 0 H 0 Z"
         id="path21" /></clipPath><clipPath
       clipPathUnits="userSpaceOnUse"
       id="clipPath43"><path
         d="M 0,595.276 H 841.89 V 0 H 0 Z"
         id="path41" /></clipPath></defs><sodipodi:namedview
     id="namedview11"
     pagecolor="#ffffff"
     bordercolor="#666666"
     borderopacity="1.0"
     inkscape:pageshadow="2"
     inkscape:pageopacity="0.0"
     inkscape:pagecheckerboard="0"
     showgrid="false"
     inkscape:zoom="0.5"
     inkscape:cx="-18.030029"
     inkscape:cy="159.11291"
     inkscape:window-width="1284"
     inkscape:window-height="1081"
     inkscape:window-x="980"
     inkscape:window-y="113"
     inkscape:window-maximized="0"
     inkscape:current-layer="g19"
     units="px"
     fit-margin-top="0"
     fit-margin-left="0"
     fit-margin-right="0"
     fit-margin-bottom="0" /><g
     id="g15"
     inkscape:groupmode="layer"
     inkscape:label="Penguin"
     transform="matrix(1.3333333,0,0,-1.3333333,-380.6517,593.91608)"><g
       id="g17"><g
         id="g19"
         clip-path="url(#clipPath23)"
         inkscape:export-filename="C:\Users\Aero\Downloads\g19.png"
         inkscape:export-xdpi="96"
         inkscape:export-ydpi="96"><g
           id="g25"
           transform="translate(347.9396,423.3561)"><path
             d="m 0,0 c -70.47,-69.128 -38.255,-211.409 -33.557,-255.034 4.698,-43.624 -24.832,-51.006 -24.832,-51.006 H 95.973 c 0,0 37.141,6.24 42.953,24.161 8.054,24.832 0.03,5.369 0.03,5.369 0,0 -10.768,-13.423 -26.204,-11.409 -15.437,2.013 -72.469,2.684 -72.469,2.684 0,0 -9.411,7.383 -6.055,20.805 3.356,13.423 21.477,64.43 14.094,81.209 l -7.382,16.778 46.979,-36.913 c 0,0 3.058,57.288 -14.914,77.638 -17.971,20.349 -25.181,25.352 -37.435,33.101 0,0 -14.765,51.677 15.437,38.926 30.201,-12.752 29.53,7.382 29.53,7.382 0,0 1.342,8.054 14.765,6.712 13.423,-1.343 10.738,-4.698 10.738,-4.698 0,0 6.041,4.027 -8.053,16.107 -11.9299,7.818694 -11.9299,7.818694 -11.9299,7.818694 0,0 2.2969,27.650306 -38.4061,40.503306 C 22.148,28.188 0,0 0,0"
             style="fill:#231f20;fill-opacity:1;fill-rule:nonzero;stroke:none"
             id="path27"
             sodipodi:nodetypes="ccccccccccccsccccccccc" /></g><g
           id="g29"
           transform="translate(347.9396,423.3561)"><path
             d="m 0,0 c -70.47,-69.128 -38.255,-211.409 -33.557,-255.034 4.698,-43.624 -24.832,-51.006 -24.832,-51.006 H 95.973 c 0,0 37.141,6.24 42.953,24.161 8.054,24.832 0.03,5.369 0.03,5.369 0,0 -10.768,-13.423 -26.204,-11.409 -15.437,2.013 -72.469,2.684 -72.469,2.684 0,0 -9.411,7.383 -6.055,20.805 3.356,13.423 21.477,64.43 14.094,81.209 l -7.382,16.778 46.979,-36.913 c 0,0 3.058,57.288 -14.914,77.638 -17.971,20.349 -25.181,25.352 -37.435,33.101 0,0 -14.765,51.677 15.437,38.926 30.201,-12.752 29.53,7.382 29.53,7.382 0,0 1.342,8.054 14.765,6.712 13.423,-1.343 10.738,-4.698 10.738,-4.698 0,0 6.041,4.027 -8.053,16.107 -14.094,12.081 -12.081,6.04 -12.081,6.04 0,0 2.448,29.429 -38.255,42.282 C 22.148,28.188 0,0 0,0 Z"
             style="fill:none;stroke:#ffffff;stroke-width:1;stroke-linecap:butt;stroke-linejoin:miter;stroke-miterlimit:10;stroke-dasharray:none;stroke-opacity:1"
             id="path31" /></g><g
           id="g33"
           transform="translate(452.6376,286.4434)"><path
             d="m 0,0 c 0,0 16.107,-7.383 18.792,-24.161 2.685,-16.779 0,-38.926 0,-38.926 L 5.369,-48.322 c 0,0 0.599,9.396 -1.342,20.805 C 2.965,-21.275 0,-12.081 -10.738,0 -21.477,12.081 0,0 0,0"
             style="fill:#231f20;fill-opacity:1;fill-rule:nonzero;stroke:none"
             id="path35" /></g></g></g><g
       id="g37"><g
         id="g39"
         clip-path="url(#clipPath43)"><g
           id="g45"
           transform="translate(414.3825,399.5306)"><path
             d="m 0,0 c 0,-2.78 -2.254,-5.034 -5.034,-5.034 -2.78,0 -5.033,2.254 -5.033,5.034 0,2.78 2.253,5.034 5.033,5.034 C -2.254,5.034 0,2.78 0,0"
             style="fill:#ffffff;fill-opacity:1;fill-rule:nonzero;stroke:none"
             id="path47" /></g></g></g></g></svg>
